PathFileType	4	(X/Y/Z)	C:/Users/beibeiliu/ov580/test_trc/User1\sequence.17_training_dense_left.trc
DataRate	CameraRate	NumFrames	NumMarkers	Units	OrigDataRate	OrigDataStartFrame	OrigNumFrames
120	120	22	19	mm	120	1	292
Frame#	Time	ThumbCMC			ThumbMCP			ThumbIP			ThumbTip			IndexMCP			IndexPIP			IndexTip			MiddleMCP			MiddlePIP			MiddleTip			RingMCP			RingPIP			RingTip			PinkyMCP			PinkyPIP			PinkyTip			BackHand1			BackHand2			BackHand3	
		X0	Y0	Z0	X1	Y1	Z1	X2	Y2	Z2	X3	Y3	Z3	X4	Y4	Z4	X5	Y5	Z5	X6	Y6	Z6	X7	Y7	Z7	X8	Y8	Z8	X9	Y9	Z9	X10	Y10	Z10	X11	Y11	Z11	X12	Y12	Z12	X13	Y13	Z13	X14	Y14	Z14	X15	Y15	Z15	X16	Y16	Z16	X17	Y17	Z17	X18	Y18	Z18	
0	0	-151.647	18.616	60.2727	-130.116	3.61254	51.8271	-104.93	-2.10574	41.5333	-83.7253	-8.33835	35.5893	-154.483	22.5306	-26.6987	-148.009	23.8705	-51.0797	-144.113	28.8029	-81.2463	-177.137	29.9858	-41.0138	-174.717	30.9288	-69.2121	-174.911	30.2375	-99.5738	-200.479	29.1494	-39.9054	-200.153	30.9649	-63.1808	-201.248	28.9814	-89.2347	-234.161	21.4672	-23.8215	-239.045	20.4665	-40.1869	-240.316	24.2885	-66.4653	-206.038	40.143	12.298	-212.699	49.1868	49.2929	-175.771	40.2257	34.4295	
1	0.00833333	-153.635	17.6769	57.4216	-129.648	4.21309	50.645	-109.687	-3.60338	37.7031	-85.4085	-9.60786	34.9146	-155.498	23.0776	-28.5579	-149.802	25.9957	-55.3811	-147.089	29.6886	-82.622	-176.61	30.1755	-43.98	-174.46	30.5616	-67.1479	-175.402	30.1413	-100.237	-205.564	30.7004	-39.1506	-199.921	30.1961	-64.4055	-200.819	29.1238	-95.1279	-231.972	21.4516	-20.8862	-241.447	20.8531	-45.769	-243.795	25.7739	-65.4336	-209.7	40.2482	15.0033	-211.717	50.02	46.1015	-175.556	39.0247	32.5349	
2	0.0166667	-155.653	17.4891	59.5066	-133.81	4.02434	52.1231	-106.269	-3.58391	37.4289	-90.9702	-9.53879	36.2511	-150.864	22.4997	-31.0037	-151.237	25.2613	-53.0236	-144.8	28.593	-77.5961	-179.942	31.2448	-40.7303	-175.379	30.5771	-68.3354	-173.263	29.4324	-98.1278	-201.431	29.871	-36.6391	-200.529	29.8238	-68.9709	-202.428	28.1804	-94.3008	-234.187	23.2022	-22.3628	-241.805	20.9281	-43.6226	-243.109	23.2539	-66.2206	-210.745	41.7159	14.3329	-212.216	48.8957	46.1631	-178.464	39.7603	35.2143	
3	0.025	-152.198	16.9984	56.6823	-134.014	3.13966	49.5689	-110	-3.77186	38.4883	-92.2719	-9.66945	38.3819	-154.404	22.2992	-30.1839	-147.047	25.3548	-54.5237	-150.774	28.6772	-76.4601	-178.682	30.4357	-38.4137	-176.302	30.7367	-69.8145	-176.872	29.4573	-98.6313	-201.422	29.7341	-38.6635	-202.027	29.7318	-67.077	-201.053	27.1886	-88.5093	-230.346	21.8404	-20.8793	-237.641	21.172	-43.5377	-243.199	24.9992	-65.6586	-209.519	40.0639	12.554	-216.29	50.0676	44.9546	-177.123	39.5158	33.2709	
4	0.0333333	-157.944	17.3063	59.004	-132.421	3.22483	48.7853	-109.139	-3.3523	41.1746	-89.7651	-9.24987	38.7974	-152.666	22.2052	-26.2521	-149.855	24.8426	-49.6847	-146.291	28.8557	-74.7114	-176.557	31.2484	-43.6418	-174.518	29.4064	-71.6828	-175.565	29.0888	-96.5758	-207.145	29.6699	-38.1014	-201.417	29.7959	-68.187	-203.649	26.572	-93.1947	-236.683	21.7841	-22.4817	-237.002	20.025	-42.1672	-243.821	24.0084	-66.1332	-210.804	41.6919	13.1575	-211.207	49.2096	44.8538	-178.815	38.8068	33.2623	
5	0.0416667	-156.71	17.7356	54.7078	-134.253	4.34024	48.3718	-109.749	-2.91074	35.7819	-89.4046	-8.67116	37.1374	-152.995	22.472	-25.3713	-152.632	26.4143	-54.7783	-147.662	28.996	-75.8686	-182.066	31.3495	-43.4854	-176.75	30.6158	-69.4296	-180.018	29.3465	-98.7238	-208.641	30.2763	-38.464	-205.65	30.2713	-68.5927	-206.486	26.8378	-90.7335	-235.037	22.709	-22.6208	-237.875	20.3238	-40.622	-244.947	21.228	-65.861	-209.22	41.3676	16.9	-214.962	49.4214	46.1654	-176.774	38.9184	34.7675	
6	0.05	-154.768	18.8167	55.2044	-132.006	5.06466	48.4157	-113.492	-3.6673	38.3331	-92.4812	-8.7071	34.9543	-156.918	24.3085	-31.5356	-150.855	25.1041	-51.0871	-150.858	29.5482	-77.3935	-183.614	32.1408	-44.4372	-177.534	30.922	-67.5917	-178.254	30.4511	-100.778	-205.129	29.9082	-36.0662	-205.751	30.0886	-66.017	-203.469	26.8178	-94.6857	-238.056	22.4293	-22.8673	-241.944	19.6383	-46.0469	-245.267	21.328	-67.9334	-209.461	39.535	17.2377	-217.258	50.3723	47.2571	-180.411	41.9116	34.8231	
7	0.0583333	-156.414	20.1388	59.1135	-134.377	5.14905	50.3892	-108.492	-1.55417	37.0471	-90.3993	-7.39402	37.4168	-156.271	25.2231	-30.4228	-149.757	26.6617	-56.0665	-151.988	30.8188	-77.9692	-182.17	32.0838	-44.3693	-178.823	31.1363	-69.0483	-175.007	29.357	-103.479	-205.314	30.399	-37.8328	-208.832	30.1392	-67.1647	-207.398	26.084	-91.6419	-238.094	23.3917	-25.7512	-240.389	20.3162	-43.0096	-244.94	20.4515	-71.1961	-214.945	41.4279	16.0037	-217.117	50.2992	45.1901	-177.51	42.4173	33.9895	
8	0.0666667	-156.179	18.7195	56.005	-134.013	4.27215	47.037	-112.978	-2.74997	35.7537	-89.3988	-7.79949	32.8326	-156.699	25.1557	-28.4384	-151.029	28.0857	-57.0242	-146.225	31.4644	-81.8166	-182.018	32.7792	-41.0076	-181.027	32.5671	-73.0669	-177.987	29.9864	-101.367	-207.38	31.3461	-39.8432	-208.474	30.7531	-66.8977	-204.369	25.456	-94.2606	-237.936	23.4968	-21.3348	-240.076	20.71	-42.1572	-245.089	21.643	-69.1438	-212.392	40.2856	14.7273	-218.519	49.8387	48.0669	-180.196	40.5525	34.6745	
9	0.075	-158.861	19.3288	56.891	-131.258	5.03182	49.827	-110.38	-1.23396	40.41	-93.4844	-9.64968	34.1326	-155.518	24.9842	-29.6819	-154.306	27.763	-52.9039	-150.398	32.3051	-79.4174	-180.407	33.4373	-43.23	-177.205	32.9167	-70.4377	-177.698	30.0709	-99.9638	-204.105	31.5008	-40.8183	-209.407	31.7326	-65.5437	-206.445	25.3353	-92.7625	-233.367	23.4178	-21.2136	-241.616	20.8581	-44.9802	-242.979	21.0376	-68.7727	-215.096	41.9276	14.7986	-217.427	50.5721	44.0301	-179.376	41.1742	35.5213	
10	0.0833333	-156.131	20.4172	55.6023	-133.584	6.07709	49.0697	-110.697	-1.30683	37.6343	-89.7785	-7.23519	34.5058	-157.574	25.8991	-31.0859	-151.165	27.9423	-53.6103	-150.242	33.1461	-81.9242	-181.475	34.5284	-45.0136	-178.372	33.0083	-69.6294	-181.609	31.1498	-100.253	-210.607	32.4563	-39.467	-208.636	32.2023	-65.9319	-205.434	26.8693	-94.1992	-233.493	24.225	-21.7497	-240.702	22.5401	-44.796	-242.866	21.5505	-68.4495	-214.755	42.865	15.2123	-216.704	50.0682	43.3797	-180.842	43.0916	33.9982	
11	0.0916667	-160.546	19.3616	57.6122	-132.391	6.36476	52.1325	-110.298	-0.395052	39.9497	-93.5848	-7.78545	33.7407	-155.77	26.2368	-30.7978	-150.569	28.923	-55.6117	-150.868	32.4898	-78.1604	-181.66	34.1765	-41.9142	-180.105	34.2201	-71.6225	-179.258	31.7992	-103.47	-209.027	32.584	-37.2074	-205.125	31.7969	-64.9896	-207.348	27.9035	-90.8689	-232.666	24.4603	-27.1977	-238.238	21.9307	-42.8738	-244.971	22.4597	-69.9012	-213.751	44.2766	13.3528	-219.032	51.8791	45.0184	-178.181	40.2459	33.3694	
12	0.1	-159.756	20.6205	53.1987	-136.925	5.04823	47.8121	-110.48	-1.14061	40.0504	-91.6761	-6.36569	36.6522	-155.197	27.0691	-31.7967	-149.289	29.3288	-54.3673	-150.087	32.6841	-77.0389	-180.07	34.4111	-43.8508	-179.833	34.2437	-73.1657	-180.888	32.6463	-99.8827	-210.541	33.7362	-39.2433	-203.928	31.9914	-68.3544	-206.336	27.5751	-92.7546	-236.466	24.4246	-22.8993	-240.207	21.8196	-42.4559	-243.007	22.8626	-71.3394	-210.398	41.4248	12.6236	-217.57	50.908	47.5362	-181.301	41.0796	35.1462	
13	0.108333	-159.811	20.178	57.4488	-133.077	6.54146	49.1041	-110.066	0.088236	37.7342	-91.2491	-6.99716	34.6869	-160.273	28.0435	-29.3395	-153.225	30.7486	-52.3059	-150.293	35.0251	-81.0079	-182.067	36.68	-45.6738	-178.649	35.086	-72.7213	-179.016	32.7216	-99.5638	-208.072	33.9616	-41.3236	-206.879	32.7542	-65.2094	-205.942	27.977	-91.313	-233.961	25.4175	-27.8604	-241.855	21.4806	-48.1927	-241.665	22.6415	-71.4203	-212.083	42.0352	12.455	-217.329	52.7338	44.8646	-181.597	44.3602	36.7473	
14	0.116667	-158.071	21.0783	57.3062	-135.803	6.84984	51.2198	-111.759	-0.600636	39.4172	-94.2193	-7.47815	33.3691	-160.025	28.8917	-32.028	-154.953	31.1483	-54.221	-151.381	34.5025	-80.5239	-181.674	35.8385	-42.0034	-178.353	34.9611	-70.9194	-180.647	32.5402	-104.946	-208.149	33.9149	-40.0824	-207.312	33.0005	-67.5108	-205.795	27.16	-90.5917	-238.627	25.8081	-26.9969	-242.154	23.5575	-43.5173	-244.649	23.5384	-73.1178	-216.407	44.4275	14.9734	-217.387	49.771	45.1086	-182.794	43.5029	34.1827	
15	0.125	-158.628	20.4435	56.7618	-135.455	6.14179	47.5909	-109.823	-0.265678	34.8986	-94.5018	-8.25022	35.116	-158.054	29.0896	-30.1187	-151.194	31.5477	-54.0398	-152.562	37.7527	-82.9555	-184.849	37.5071	-41.6129	-177.537	35.8745	-73.8843	-179.598	33.2156	-101.395	-209.944	34.7461	-38.9696	-206.792	32.1835	-66.0743	-208.497	26.8971	-92.1455	-239.272	26.602	-25.7945	-240.471	23.1624	-45.2858	-241.75	22.7693	-72.242	-213.625	43.3866	12.6565	-217.807	51.2048	45.847	-179.906	44.8873	32.1174	
16	0.133333	-159.436	20.7007	58.492	-133.428	6.27363	46.3921	-113.522	-0.458471	36.1127	-92.1132	-6.43416	31.0978	-159.874	29.4286	-28.1003	-155.159	32.5977	-57.0012	-153.045	37.5203	-79.9485	-187.169	36.6033	-40.7769	-183.058	35.9785	-72.4711	-182.58	31.8606	-101.247	-207.477	32.9126	-40.531	-209.808	31.7531	-69.2747	-209.5	24.9664	-96.6046	-238.374	25.3381	-27.1421	-241.845	22.4436	-44.983	-243.147	20.2367	-70.2379	-215.491	44.5232	16.8881	-217.162	52.0943	44.4622	-182.515	44.7793	31.7079	
17	0.141667	-158.616	20.6428	57.0011	-138.773	5.98176	49.137	-115.461	-0.215946	37.1719	-93.7388	-6.02303	32.9882	-157.615	30.1881	-27.1003	-155.907	34.3716	-56.6113	-153.696	38.7409	-79.2912	-185.643	37.1093	-45.7589	-181.385	34.0919	-71.9108	-184.176	28.3581	-106.124	-211.358	33.6075	-42.1107	-211.225	30.3317	-67.6765	-206.71	18.9476	-94.5005	-237.015	25.983	-25.2373	-244.269	21.0974	-48.0655	-244.265	18.5202	-69.0515	-213.814	45.1391	14.1416	-220.649	51.8679	43.8224	-185.373	45.0289	33.4784	
18	0.15	-158.837	21.1275	55.8979	-141.018	6.76947	48.027	-113.074	0.632949	34.1662	-97.5369	-5.78366	28.3488	-160.15	31.3691	-26.7235	-154.83	36.706	-53.5242	-156.207	42.1493	-79.5064	-186.022	37.5218	-42.8445	-185.729	32.5842	-76.5444	-186.894	24.2239	-101.273	-212.016	33.0489	-40.3488	-213.475	26.4189	-70.8058	-210.733	12.476	-96.5794	-239.123	24.9537	-25.3597	-242.416	18.944	-48.99	-242.648	15.547	-70.1327	-214.604	44.8235	16.4075	-222.341	53.1301	47.2349	-187.782	43.5532	34.9605	
19	0.158333	-163.156	21.3592	56.3525	-138.392	8.19355	48.9423	-117.13	2.1586	34.7715	-97.1656	-4.14141	30.4267	-162.403	36.5006	-30.631	-157.364	39.0779	-50.7828	-156.465	44.6419	-78.8184	-188.002	37.4817	-46.7146	-182.968	29.0244	-74.0577	-188.139	15.2244	-101.186	-214.739	31.4091	-44.6992	-212.245	22.5182	-68.0782	-211.055	4.28752	-93.432	-241.658	25.6407	-24.1015	-245.656	18.8339	-45.8626	-245.954	10.2441	-70.4328	-216.441	48.0634	13.9906	-223.272	50.3632	49.9038	-183.981	45.0699	37.6056	
20	0.166667	-166.318	22.1814	58.0461	-138.621	8.98834	45.3896	-116.08	3.84835	31.8027	-96.3336	-3.24956	27.0038	-163.887	36.7455	-26.1441	-159.308	42.2018	-54.6796	-156.999	48.1993	-80.3335	-191.788	35.9599	-44.3195	-184.614	24.8532	-73.4933	-188.927	2.56245	-99.9844	-215.57	29.5975	-41.8987	-214.702	14.8802	-72.3405	-211.099	-5.44764	-87.748	-241.296	24.3211	-25.4341	-244.773	15.4323	-46.7753	-240.584	5.46086	-70.7939	-218.748	46.1094	15.2087	-223.871	50.7683	46.285	-188.695	47.103	33.4699	
21	0.175	-163.682	23.7163	54.5802	-143.355	8.83803	47.1132	-118.128	4.01488	31.7845	-102.617	-3.9736	26.5607	-163.026	38.3468	-28.9294	-156.612	42.8636	-51.8416	-155.646	49.4105	-76.059	-186.95	34.5075	-48.1088	-187.549	17.5263	-75.7775	-188.925	-9.12704	-92.9079	-214.699	28.2572	-41.5851	-212.386	8.69814	-70.2312	-212.531	-16.2844	-81.6331	-238.918	23.1205	-29.3124	-240.111	11.3214	-50.9119	-237.045	-2.5297	-69.2797	-218.851	47.1433	13.8917	-226.598	51.07	49.0416	-189.109	47.0558	35.4295	
